HIERARCHY
ROOT hip
{
	OFFSET 0.000000 0.000000 0.000000
	CHANNELS 6 Xposition Yposition Zposition Xrotation Zrotation Yrotation 
	JOINT abdomen
	{
		OFFSET 0.000000 3.422050 0.000000
		CHANNELS 3 Xrotation Zrotation Yrotation 
		JOINT chest
		{
			OFFSET 0.000000 8.486693 -0.684411
			CHANNELS 3 Xrotation Zrotation Yrotation 
			JOINT neck
			{
				OFFSET 0.000000 10.266162 -0.273764
				CHANNELS 3 Xrotation Zrotation Yrotation 
				JOINT head
				{
					OFFSET 0.000000 3.148285 0.000000
					CHANNELS 3 Xrotation Zrotation Yrotation 
					End Site
					{
						OFFSET 0.000000 3.148289 0.000000
					}
				}
			}
			JOINT lCollar
			{
				OFFSET 3.422053 6.707223 -0.821293
				CHANNELS 3 Yrotation Zrotation Xrotation 
				JOINT lShldr
				{
					OFFSET 3.285171 0.000000 0.000000
					CHANNELS 3 Zrotation Yrotation Xrotation 
					JOINT lForeArm
					{
						OFFSET 10.129278 0.000000 0.000000
						CHANNELS 3 Yrotation Zrotation Xrotation 
						JOINT lHand
						{
							OFFSET 8.486692 0.000000 0.000000
							CHANNELS 3 Zrotation Yrotation Xrotation 
							End Site
							{
								OFFSET 4.106464 0.000000 0.000000
							}
						}
					}
				}
			}
			JOINT rCollar
			{
				OFFSET -3.558935 6.707223 -0.821293
				CHANNELS 3 Yrotation Zrotation Xrotation 
				JOINT rShldr
				{
					OFFSET -3.148289 0.000000 0.000000
					CHANNELS 3 Zrotation Yrotation Xrotation 
					JOINT rForeArm
					{
						OFFSET -10.266159 0.000000 0.000000
						CHANNELS 3 Yrotation Zrotation Xrotation 
						JOINT rHand
						{
							OFFSET -8.349810 0.000000 0.000000
							CHANNELS 3 Zrotation Yrotation Xrotation 
							End Site
							{
								OFFSET -4.106464 0.000000 0.000000
							}
						}
					}
				}
			}
		}
	}
	JOINT lThigh
	{
		OFFSET 5.338403 -1.642589 1.368821
		CHANNELS 3 Xrotation Zrotation Yrotation 
		JOINT lShin
		{
			OFFSET -2.053232 -20.121670 0.000000
			CHANNELS 3 Xrotation Zrotation Yrotation 
			JOINT lFoot
			{
				OFFSET 0.000000 -19.300380 -1.231939
				CHANNELS 3 Xrotation Yrotation Zrotation 
				End Site
				{
					OFFSET 0.000000 -2.463878 4.653993
				}
			}
		}
	}
	JOINT rThigh
	{
		OFFSET -5.338403 -1.642589 1.368821
		CHANNELS 3 Xrotation Zrotation Yrotation 
		JOINT rShin
		{
			OFFSET 2.053232 -20.121670 0.000000
			CHANNELS 3 Xrotation Zrotation Yrotation 
			JOINT rFoot
			{
				OFFSET 0.000000 -19.300380 -1.231939
				CHANNELS 3 Xrotation Yrotation Zrotation 
				End Site
				{
					OFFSET 0.000000 -2.463878 4.653993
				}
			}
		}
	}
}
MOTION
Frames: 6
Frame Time: 0.033264
0.000000 43.528500 0.000000 0.000000 0.000000 0.000000 0.000000 0.000000 0.000000 0.000000 0.000000 0.000000 0.000000 0.000000 0.000000 0.000000 0.000000 0.000000 0.000000 0.000000 0.000000 0.000000 0.000000 0.000000 0.000000 0.000000 0.000000 0.000000 0.000000 0.000000 0.000000 0.000000 0.000000 0.000000 0.000000 0.000000 0.000000 0.000000 0.000000 0.000000 0.000000 0.000000 0.000000 0.000000 0.000000 0.000000 0.000000 0.000000 0.000000 0.000000 0.000000 0.000000 0.000000 0.000000 0.000000 0.000000 0.000000 0.000000 0.000000 0.000000 
19.995882 23.514593 22.591131 63.997410 0.000001 -0.000001 41.550297 -0.255599 -0.218525 12.453190 -1.448460 -0.863435 -50.001373 0.000000 0.000000 -54.001434 0.000000 0.000000 4.184457 -14.177480 -2.828160 87.405060 -55.718372 -56.949417 -14.098650 6.186757 -9.136030 59.998985 0.000000 0.000000 -4.188097 14.174059 -2.827825 -87.381012 55.710548 -56.922031 14.094886 -6.189935 -9.135818 -60.003029 0.000000 0.000000 -66.851982 9.563074 2.844224 94.250748 2.647808 -2.775723 54.459812 2.414577 5.946798 -66.837044 -9.586765 -2.951756 94.220062 -2.744692 2.805067 54.466385 -2.447942 -5.957284 
19.995882 23.530947 22.552750 64.441269 0.000001 -0.000001 41.993839 -0.256039 -0.218982 10.533827 -1.448728 -0.863930 -50.001377 0.000000 0.000000 -54.001434 0.000000 0.000000 4.683143 -14.445731 -1.905504 87.915672 -55.736477 -57.373295 -14.098650 6.186757 -9.136030 59.738400 -0.123627 0.070716 -4.593986 14.384912 -1.920470 -87.799225 55.729069 -57.267952 14.094886 -6.189935 -9.135818 -59.751629 0.129832 0.051456 -67.479614 9.548442 2.817544 94.250755 2.647808 -2.775723 54.459816 2.414577 5.946798 -67.463402 -9.574251 -2.926371 94.220062 -2.744692 2.805067 54.466385 -2.447942 -5.957284 
19.995882 23.547300 22.514368 64.885231 0.000001 -0.000001 42.437489 -0.256475 -0.219442 8.605628 -1.449014 -0.864419 -50.001373 0.000000 0.000000 -54.001438 0.000000 0.000000 5.187412 -14.706444 -0.978287 88.426796 -55.752453 -57.797676 -14.098650 6.186757 -9.136030 59.477642 -0.246943 0.142002 -5.004083 14.589709 -1.009795 -88.217842 55.746170 -57.614285 14.094886 -6.189935 -9.135818 -59.500080 0.259450 0.103488 -68.107483 9.533512 2.791016 94.250748 2.647808 -2.775723 54.459812 2.414577 5.946798 -68.090027 -9.561459 -2.901115 94.220070 -2.744692 2.805067 54.466393 -2.447942 -5.957285 
19.995882 23.563654 22.475986 65.329300 0.000001 -0.000001 42.881226 -0.256908 -0.219906 6.669624 -1.449317 -0.864899 -50.001377 0.000000 0.000000 -54.001438 0.000000 0.000000 5.697101 -14.959467 -0.046684 88.938339 -55.766296 -58.222492 -14.098651 6.186757 -9.136030 59.216690 -0.369946 0.213856 -5.418255 14.788346 -0.095952 -88.636826 55.761841 -57.960979 14.094886 -6.189935 -9.135818 -59.248402 0.388850 0.156093 -68.735611 9.518293 2.764646 94.250755 2.647808 -2.775723 54.459816 2.414577 5.946798 -68.716888 -9.548390 -2.875993 94.220062 -2.744692 2.805067 54.466385 -2.447942 -5.957284 
19.995882 23.580008 22.437605 65.773445 0.000001 -0.000001 43.325047 -0.257337 -0.220373 4.726889 -1.449637 -0.865371 -50.001366 0.000000 0.000000 -54.001431 0.000000 0.000000 6.212033 -15.204639 0.889121 89.450272 -55.778015 -58.647686 -14.098650 6.186757 -9.136030 58.955544 -0.492630 0.286277 -5.836354 14.980701 0.820901 -89.056175 55.776085 -58.308041 14.094885 -6.189935 -9.135817 -58.996571 0.518028 0.209271 -69.363914 9.502784 2.738439 94.250748 2.647808 -2.775723 54.459812 2.414577 5.946798 -69.343941 -9.535046 -2.851009 94.220062 -2.744692 2.805067 54.466381 -2.447942 -5.957284 
